<svg xmlns="http://www.w3.org/2000/svg" xmlns:xlink="http://www.w3.org/1999/xlink" width="600" height="400" viewBox="0 0 2400 1600">
<defs>
  <clipPath id="clip870">
    <rect x="0" y="0" width="2400" height="1600"></rect>
  </clipPath>
</defs>
<path clip-path="url(#clip870)" d="M0 1600 L2400 1600 L2400 0 L0 0  Z" fill="#ffffff" fill-rule="evenodd" fill-opacity="1"></path>
<defs>
  <clipPath id="clip871">
    <rect x="480" y="0" width="1681" height="1600"></rect>
  </clipPath>
</defs>
<path clip-path="url(#clip870)" d="M141.853 1486.45 L2352.76 1486.45 L2352.76 123.472 L141.853 123.472  Z" fill="#ffffff" fill-rule="evenodd" fill-opacity="1"></path>
<defs>
  <clipPath id="clip872">
    <rect x="141" y="123" width="2212" height="1364"></rect>
  </clipPath>
</defs>
<polyline clip-path="url(#clip872)" style="stroke:#000000; stroke-linecap:round; stroke-linejoin:round; stroke-width:2; stroke-opacity:0.1; fill:none" points="461.134,1486.45 461.134,123.472 "></polyline>
<polyline clip-path="url(#clip872)" style="stroke:#000000; stroke-linecap:round; stroke-linejoin:round; stroke-width:2; stroke-opacity:0.1; fill:none" points="782.02,1486.45 782.02,123.472 "></polyline>
<polyline clip-path="url(#clip872)" style="stroke:#000000; stroke-linecap:round; stroke-linejoin:round; stroke-width:2; stroke-opacity:0.1; fill:none" points="1102.91,1486.45 1102.91,123.472 "></polyline>
<polyline clip-path="url(#clip872)" style="stroke:#000000; stroke-linecap:round; stroke-linejoin:round; stroke-width:2; stroke-opacity:0.1; fill:none" points="1423.79,1486.45 1423.79,123.472 "></polyline>
<polyline clip-path="url(#clip872)" style="stroke:#000000; stroke-linecap:round; stroke-linejoin:round; stroke-width:2; stroke-opacity:0.1; fill:none" points="1744.68,1486.45 1744.68,123.472 "></polyline>
<polyline clip-path="url(#clip872)" style="stroke:#000000; stroke-linecap:round; stroke-linejoin:round; stroke-width:2; stroke-opacity:0.1; fill:none" points="2065.56,1486.45 2065.56,123.472 "></polyline>
<polyline clip-path="url(#clip872)" style="stroke:#000000; stroke-linecap:round; stroke-linejoin:round; stroke-width:2; stroke-opacity:0.1; fill:none" points="141.853,1326.24 2352.76,1326.24 "></polyline>
<polyline clip-path="url(#clip872)" style="stroke:#000000; stroke-linecap:round; stroke-linejoin:round; stroke-width:2; stroke-opacity:0.1; fill:none" points="141.853,1152.48 2352.76,1152.48 "></polyline>
<polyline clip-path="url(#clip872)" style="stroke:#000000; stroke-linecap:round; stroke-linejoin:round; stroke-width:2; stroke-opacity:0.1; fill:none" points="141.853,978.72 2352.76,978.72 "></polyline>
<polyline clip-path="url(#clip872)" style="stroke:#000000; stroke-linecap:round; stroke-linejoin:round; stroke-width:2; stroke-opacity:0.1; fill:none" points="141.853,804.96 2352.76,804.96 "></polyline>
<polyline clip-path="url(#clip872)" style="stroke:#000000; stroke-linecap:round; stroke-linejoin:round; stroke-width:2; stroke-opacity:0.1; fill:none" points="141.853,631.2 2352.76,631.2 "></polyline>
<polyline clip-path="url(#clip872)" style="stroke:#000000; stroke-linecap:round; stroke-linejoin:round; stroke-width:2; stroke-opacity:0.1; fill:none" points="141.853,457.439 2352.76,457.439 "></polyline>
<polyline clip-path="url(#clip872)" style="stroke:#000000; stroke-linecap:round; stroke-linejoin:round; stroke-width:2; stroke-opacity:0.1; fill:none" points="141.853,283.679 2352.76,283.679 "></polyline>
<polyline clip-path="url(#clip870)" style="stroke:#000000; stroke-linecap:round; stroke-linejoin:round; stroke-width:4; stroke-opacity:1; fill:none" points="141.853,1486.45 2352.76,1486.45 "></polyline>
<polyline clip-path="url(#clip870)" style="stroke:#000000; stroke-linecap:round; stroke-linejoin:round; stroke-width:4; stroke-opacity:1; fill:none" points="461.134,1486.45 461.134,1467.55 "></polyline>
<polyline clip-path="url(#clip870)" style="stroke:#000000; stroke-linecap:round; stroke-linejoin:round; stroke-width:4; stroke-opacity:1; fill:none" points="782.02,1486.45 782.02,1467.55 "></polyline>
<polyline clip-path="url(#clip870)" style="stroke:#000000; stroke-linecap:round; stroke-linejoin:round; stroke-width:4; stroke-opacity:1; fill:none" points="1102.91,1486.45 1102.91,1467.55 "></polyline>
<polyline clip-path="url(#clip870)" style="stroke:#000000; stroke-linecap:round; stroke-linejoin:round; stroke-width:4; stroke-opacity:1; fill:none" points="1423.79,1486.45 1423.79,1467.55 "></polyline>
<polyline clip-path="url(#clip870)" style="stroke:#000000; stroke-linecap:round; stroke-linejoin:round; stroke-width:4; stroke-opacity:1; fill:none" points="1744.68,1486.45 1744.68,1467.55 "></polyline>
<polyline clip-path="url(#clip870)" style="stroke:#000000; stroke-linecap:round; stroke-linejoin:round; stroke-width:4; stroke-opacity:1; fill:none" points="2065.56,1486.45 2065.56,1467.55 "></polyline>
<path clip-path="url(#clip870)" d="M435.822 1544.91 L443.461 1544.91 L443.461 1518.55 L435.151 1520.21 L435.151 1515.95 L443.414 1514.29 L448.09 1514.29 L448.09 1544.91 L455.729 1544.91 L455.729 1548.85 L435.822 1548.85 L435.822 1544.91 Z" fill="#000000" fill-rule="nonzero" fill-opacity="1"></path><path clip-path="url(#clip870)" d="M475.174 1517.37 Q471.562 1517.37 469.734 1520.93 Q467.928 1524.47 467.928 1531.6 Q467.928 1538.71 469.734 1542.27 Q471.562 1545.82 475.174 1545.82 Q478.808 1545.82 480.613 1542.27 Q482.442 1538.71 482.442 1531.6 Q482.442 1524.47 480.613 1520.93 Q478.808 1517.37 475.174 1517.37 M475.174 1513.66 Q480.984 1513.66 484.039 1518.27 Q487.118 1522.85 487.118 1531.6 Q487.118 1540.33 484.039 1544.94 Q480.984 1549.52 475.174 1549.52 Q469.363 1549.52 466.285 1544.94 Q463.229 1540.33 463.229 1531.6 Q463.229 1522.85 466.285 1518.27 Q469.363 1513.66 475.174 1513.66 Z" fill="#000000" fill-rule="nonzero" fill-opacity="1"></path><path clip-path="url(#clip870)" d="M760.793 1544.91 L777.113 1544.91 L777.113 1548.85 L755.168 1548.85 L755.168 1544.91 Q757.83 1542.16 762.414 1537.53 Q767.02 1532.88 768.201 1531.53 Q770.446 1529.01 771.326 1527.27 Q772.228 1525.51 772.228 1523.82 Q772.228 1521.07 770.284 1519.33 Q768.363 1517.6 765.261 1517.6 Q763.062 1517.6 760.608 1518.36 Q758.178 1519.13 755.4 1520.68 L755.4 1515.95 Q758.224 1514.82 760.678 1514.24 Q763.131 1513.66 765.168 1513.66 Q770.539 1513.66 773.733 1516.35 Q776.927 1519.03 776.927 1523.52 Q776.927 1525.65 776.117 1527.57 Q775.33 1529.47 773.224 1532.07 Q772.645 1532.74 769.543 1535.95 Q766.441 1539.15 760.793 1544.91 Z" fill="#000000" fill-rule="nonzero" fill-opacity="1"></path><path clip-path="url(#clip870)" d="M796.927 1517.37 Q793.316 1517.37 791.488 1520.93 Q789.682 1524.47 789.682 1531.6 Q789.682 1538.71 791.488 1542.27 Q793.316 1545.82 796.927 1545.82 Q800.562 1545.82 802.367 1542.27 Q804.196 1538.71 804.196 1531.6 Q804.196 1524.47 802.367 1520.93 Q800.562 1517.37 796.927 1517.37 M796.927 1513.66 Q802.738 1513.66 805.793 1518.27 Q808.872 1522.85 808.872 1531.6 Q808.872 1540.33 805.793 1544.94 Q802.738 1549.52 796.927 1549.52 Q791.117 1549.52 788.039 1544.94 Q784.983 1540.33 784.983 1531.6 Q784.983 1522.85 788.039 1518.27 Q791.117 1513.66 796.927 1513.66 Z" fill="#000000" fill-rule="nonzero" fill-opacity="1"></path><path clip-path="url(#clip870)" d="M1091.75 1530.21 Q1095.1 1530.93 1096.98 1533.2 Q1098.88 1535.47 1098.88 1538.8 Q1098.88 1543.92 1095.36 1546.72 Q1091.84 1549.52 1085.36 1549.52 Q1083.18 1549.52 1080.87 1549.08 Q1078.58 1548.66 1076.12 1547.81 L1076.12 1543.29 Q1078.07 1544.43 1080.38 1545.01 Q1082.7 1545.58 1085.22 1545.58 Q1089.62 1545.58 1091.91 1543.85 Q1094.23 1542.11 1094.23 1538.8 Q1094.23 1535.75 1092.07 1534.03 Q1089.94 1532.3 1086.12 1532.3 L1082.1 1532.3 L1082.1 1528.45 L1086.31 1528.45 Q1089.76 1528.45 1091.59 1527.09 Q1093.42 1525.7 1093.42 1523.11 Q1093.42 1520.45 1091.52 1519.03 Q1089.64 1517.6 1086.12 1517.6 Q1084.2 1517.6 1082 1518.01 Q1079.8 1518.43 1077.17 1519.31 L1077.17 1515.14 Q1079.83 1514.4 1082.14 1514.03 Q1084.48 1513.66 1086.54 1513.66 Q1091.86 1513.66 1094.97 1516.09 Q1098.07 1518.5 1098.07 1522.62 Q1098.07 1525.49 1096.42 1527.48 Q1094.78 1529.45 1091.75 1530.21 Z" fill="#000000" fill-rule="nonzero" fill-opacity="1"></path><path clip-path="url(#clip870)" d="M1117.74 1517.37 Q1114.13 1517.37 1112.3 1520.93 Q1110.5 1524.47 1110.5 1531.6 Q1110.5 1538.71 1112.3 1542.27 Q1114.13 1545.82 1117.74 1545.82 Q1121.38 1545.82 1123.18 1542.27 Q1125.01 1538.71 1125.01 1531.6 Q1125.01 1524.47 1123.18 1520.93 Q1121.38 1517.37 1117.74 1517.37 M1117.74 1513.66 Q1123.55 1513.66 1126.61 1518.27 Q1129.69 1522.85 1129.69 1531.6 Q1129.69 1540.33 1126.61 1544.94 Q1123.55 1549.52 1117.74 1549.52 Q1111.93 1549.52 1108.85 1544.94 Q1105.8 1540.33 1105.8 1531.6 Q1105.8 1522.85 1108.85 1518.27 Q1111.93 1513.66 1117.74 1513.66 Z" fill="#000000" fill-rule="nonzero" fill-opacity="1"></path><path clip-path="url(#clip870)" d="M1411.96 1518.36 L1400.16 1536.81 L1411.96 1536.81 L1411.96 1518.36 M1410.74 1514.29 L1416.62 1514.29 L1416.62 1536.81 L1421.55 1536.81 L1421.55 1540.7 L1416.62 1540.7 L1416.62 1548.85 L1411.96 1548.85 L1411.96 1540.7 L1396.36 1540.7 L1396.36 1536.19 L1410.74 1514.29 Z" fill="#000000" fill-rule="nonzero" fill-opacity="1"></path><path clip-path="url(#clip870)" d="M1439.28 1517.37 Q1435.67 1517.37 1433.84 1520.93 Q1432.03 1524.47 1432.03 1531.6 Q1432.03 1538.71 1433.84 1542.27 Q1435.67 1545.82 1439.28 1545.82 Q1442.91 1545.82 1444.72 1542.27 Q1446.55 1538.71 1446.55 1531.6 Q1446.55 1524.47 1444.72 1520.93 Q1442.91 1517.37 1439.28 1517.37 M1439.28 1513.66 Q1445.09 1513.66 1448.14 1518.27 Q1451.22 1522.85 1451.22 1531.6 Q1451.22 1540.33 1448.14 1544.94 Q1445.09 1549.52 1439.28 1549.52 Q1433.47 1549.52 1430.39 1544.94 Q1427.33 1540.33 1427.33 1531.6 Q1427.33 1522.85 1430.39 1518.27 Q1433.47 1513.66 1439.28 1513.66 Z" fill="#000000" fill-rule="nonzero" fill-opacity="1"></path><path clip-path="url(#clip870)" d="M1719.38 1514.29 L1737.73 1514.29 L1737.73 1518.22 L1723.66 1518.22 L1723.66 1526.7 Q1724.68 1526.35 1725.7 1526.19 Q1726.71 1526 1727.73 1526 Q1733.52 1526 1736.9 1529.17 Q1740.28 1532.34 1740.28 1537.76 Q1740.28 1543.34 1736.81 1546.44 Q1733.33 1549.52 1727.02 1549.52 Q1724.84 1549.52 1722.57 1549.15 Q1720.33 1548.78 1717.92 1548.04 L1717.92 1543.34 Q1720 1544.47 1722.22 1545.03 Q1724.45 1545.58 1726.92 1545.58 Q1730.93 1545.58 1733.27 1543.48 Q1735.6 1541.37 1735.6 1537.76 Q1735.6 1534.15 1733.27 1532.04 Q1730.93 1529.94 1726.92 1529.94 Q1725.05 1529.94 1723.17 1530.35 Q1721.32 1530.77 1719.38 1531.65 L1719.38 1514.29 Z" fill="#000000" fill-rule="nonzero" fill-opacity="1"></path><path clip-path="url(#clip870)" d="M1759.49 1517.37 Q1755.88 1517.37 1754.05 1520.93 Q1752.25 1524.47 1752.25 1531.6 Q1752.25 1538.71 1754.05 1542.27 Q1755.88 1545.82 1759.49 1545.82 Q1763.13 1545.82 1764.93 1542.27 Q1766.76 1538.71 1766.76 1531.6 Q1766.76 1524.47 1764.93 1520.93 Q1763.13 1517.37 1759.49 1517.37 M1759.49 1513.66 Q1765.3 1513.66 1768.36 1518.27 Q1771.44 1522.85 1771.44 1531.6 Q1771.44 1540.33 1768.36 1544.94 Q1765.3 1549.52 1759.49 1549.52 Q1753.68 1549.52 1750.6 1544.94 Q1747.55 1540.33 1747.55 1531.6 Q1747.55 1522.85 1750.6 1518.27 Q1753.68 1513.66 1759.49 1513.66 Z" fill="#000000" fill-rule="nonzero" fill-opacity="1"></path><path clip-path="url(#clip870)" d="M2050.97 1529.7 Q2047.82 1529.7 2045.97 1531.86 Q2044.14 1534.01 2044.14 1537.76 Q2044.14 1541.49 2045.97 1543.66 Q2047.82 1545.82 2050.97 1545.82 Q2054.12 1545.82 2055.95 1543.66 Q2057.8 1541.49 2057.8 1537.76 Q2057.8 1534.01 2055.95 1531.86 Q2054.12 1529.7 2050.97 1529.7 M2060.25 1515.05 L2060.25 1519.31 Q2058.49 1518.48 2056.69 1518.04 Q2054.9 1517.6 2053.14 1517.6 Q2048.51 1517.6 2046.06 1520.72 Q2043.63 1523.85 2043.28 1530.17 Q2044.65 1528.15 2046.71 1527.09 Q2048.77 1526 2051.25 1526 Q2056.45 1526 2059.46 1529.17 Q2062.5 1532.32 2062.5 1537.76 Q2062.5 1543.08 2059.35 1546.3 Q2056.2 1549.52 2050.97 1549.52 Q2044.97 1549.52 2041.8 1544.94 Q2038.63 1540.33 2038.63 1531.6 Q2038.63 1523.41 2042.52 1518.55 Q2046.41 1513.66 2052.96 1513.66 Q2054.72 1513.66 2056.5 1514.01 Q2058.31 1514.36 2060.25 1515.05 Z" fill="#000000" fill-rule="nonzero" fill-opacity="1"></path><path clip-path="url(#clip870)" d="M2080.55 1517.37 Q2076.94 1517.37 2075.11 1520.93 Q2073.31 1524.47 2073.31 1531.6 Q2073.31 1538.71 2075.11 1542.27 Q2076.94 1545.82 2080.55 1545.82 Q2084.19 1545.82 2085.99 1542.27 Q2087.82 1538.71 2087.82 1531.6 Q2087.82 1524.47 2085.99 1520.93 Q2084.19 1517.37 2080.55 1517.37 M2080.55 1513.66 Q2086.36 1513.66 2089.42 1518.27 Q2092.5 1522.85 2092.5 1531.6 Q2092.5 1540.33 2089.42 1544.94 Q2086.36 1549.52 2080.55 1549.52 Q2074.74 1549.52 2071.66 1544.94 Q2068.61 1540.33 2068.61 1531.6 Q2068.61 1522.85 2071.66 1518.27 Q2074.74 1513.66 2080.55 1513.66 Z" fill="#000000" fill-rule="nonzero" fill-opacity="1"></path><polyline clip-path="url(#clip870)" style="stroke:#000000; stroke-linecap:round; stroke-linejoin:round; stroke-width:4; stroke-opacity:1; fill:none" points="141.853,1486.45 141.853,123.472 "></polyline>
<polyline clip-path="url(#clip870)" style="stroke:#000000; stroke-linecap:round; stroke-linejoin:round; stroke-width:4; stroke-opacity:1; fill:none" points="141.853,1326.24 160.751,1326.24 "></polyline>
<polyline clip-path="url(#clip870)" style="stroke:#000000; stroke-linecap:round; stroke-linejoin:round; stroke-width:4; stroke-opacity:1; fill:none" points="141.853,1152.48 160.751,1152.48 "></polyline>
<polyline clip-path="url(#clip870)" style="stroke:#000000; stroke-linecap:round; stroke-linejoin:round; stroke-width:4; stroke-opacity:1; fill:none" points="141.853,978.72 160.751,978.72 "></polyline>
<polyline clip-path="url(#clip870)" style="stroke:#000000; stroke-linecap:round; stroke-linejoin:round; stroke-width:4; stroke-opacity:1; fill:none" points="141.853,804.96 160.751,804.96 "></polyline>
<polyline clip-path="url(#clip870)" style="stroke:#000000; stroke-linecap:round; stroke-linejoin:round; stroke-width:4; stroke-opacity:1; fill:none" points="141.853,631.2 160.751,631.2 "></polyline>
<polyline clip-path="url(#clip870)" style="stroke:#000000; stroke-linecap:round; stroke-linejoin:round; stroke-width:4; stroke-opacity:1; fill:none" points="141.853,457.439 160.751,457.439 "></polyline>
<polyline clip-path="url(#clip870)" style="stroke:#000000; stroke-linecap:round; stroke-linejoin:round; stroke-width:4; stroke-opacity:1; fill:none" points="141.853,283.679 160.751,283.679 "></polyline>
<path clip-path="url(#clip870)" d="M54.5569 1339.59 L62.1958 1339.59 L62.1958 1313.22 L53.8856 1314.89 L53.8856 1310.63 L62.1495 1308.96 L66.8254 1308.96 L66.8254 1339.59 L74.4642 1339.59 L74.4642 1343.52 L54.5569 1343.52 L54.5569 1339.59 Z" fill="#000000" fill-rule="nonzero" fill-opacity="1"></path><path clip-path="url(#clip870)" d="M93.9086 1312.04 Q90.2975 1312.04 88.4688 1315.6 Q86.6632 1319.15 86.6632 1326.28 Q86.6632 1333.38 88.4688 1336.95 Q90.2975 1340.49 93.9086 1340.49 Q97.5428 1340.49 99.3483 1336.95 Q101.177 1333.38 101.177 1326.28 Q101.177 1319.15 99.3483 1315.6 Q97.5428 1312.04 93.9086 1312.04 M93.9086 1308.34 Q99.7187 1308.34 102.774 1312.94 Q105.853 1317.53 105.853 1326.28 Q105.853 1335 102.774 1339.61 Q99.7187 1344.19 93.9086 1344.19 Q88.0984 1344.19 85.0197 1339.61 Q81.9642 1335 81.9642 1326.28 Q81.9642 1317.53 85.0197 1312.94 Q88.0984 1308.34 93.9086 1308.34 Z" fill="#000000" fill-rule="nonzero" fill-opacity="1"></path><path clip-path="url(#clip870)" d="M57.7745 1165.83 L74.0939 1165.83 L74.0939 1169.76 L52.1495 1169.76 L52.1495 1165.83 Q54.8115 1163.07 59.3949 1158.44 Q64.0013 1153.79 65.1819 1152.45 Q67.4272 1149.92 68.3068 1148.19 Q69.2096 1146.43 69.2096 1144.74 Q69.2096 1141.98 67.2652 1140.25 Q65.3439 1138.51 62.2421 1138.51 Q60.043 1138.51 57.5893 1139.27 Q55.1588 1140.04 52.381 1141.59 L52.381 1136.87 Q55.2051 1135.73 57.6588 1135.15 Q60.1124 1134.58 62.1495 1134.58 Q67.5198 1134.58 70.7142 1137.26 Q73.9087 1139.95 73.9087 1144.44 Q73.9087 1146.57 73.0985 1148.49 Q72.3115 1150.39 70.205 1152.98 Q69.6263 1153.65 66.5245 1156.87 Q63.4226 1160.06 57.7745 1165.83 Z" fill="#000000" fill-rule="nonzero" fill-opacity="1"></path><path clip-path="url(#clip870)" d="M93.9086 1138.28 Q90.2975 1138.28 88.4688 1141.84 Q86.6632 1145.39 86.6632 1152.52 Q86.6632 1159.62 88.4688 1163.19 Q90.2975 1166.73 93.9086 1166.73 Q97.5428 1166.73 99.3483 1163.19 Q101.177 1159.62 101.177 1152.52 Q101.177 1145.39 99.3483 1141.84 Q97.5428 1138.28 93.9086 1138.28 M93.9086 1134.58 Q99.7187 1134.58 102.774 1139.18 Q105.853 1143.77 105.853 1152.52 Q105.853 1161.24 102.774 1165.85 Q99.7187 1170.43 93.9086 1170.43 Q88.0984 1170.43 85.0197 1165.85 Q81.9642 1161.24 81.9642 1152.52 Q81.9642 1143.77 85.0197 1139.18 Q88.0984 1134.58 93.9086 1134.58 Z" fill="#000000" fill-rule="nonzero" fill-opacity="1"></path><path clip-path="url(#clip870)" d="M67.9133 977.366 Q71.2698 978.084 73.1448 980.352 Q75.0429 982.621 75.0429 985.954 Q75.0429 991.07 71.5244 993.871 Q68.0059 996.672 61.5245 996.672 Q59.3486 996.672 57.0338 996.232 Q54.7421 995.815 52.2884 994.959 L52.2884 990.445 Q54.2328 991.579 56.5477 992.158 Q58.8625 992.736 61.3856 992.736 Q65.7837 992.736 68.0754 991 Q70.3902 989.264 70.3902 985.954 Q70.3902 982.899 68.2374 981.186 Q66.1078 979.449 62.2884 979.449 L58.2606 979.449 L58.2606 975.607 L62.4735 975.607 Q65.9226 975.607 67.7513 974.241 Q69.58 972.852 69.58 970.26 Q69.58 967.598 67.6819 966.186 Q65.8069 964.75 62.2884 964.75 Q60.3671 964.75 58.168 965.167 Q55.969 965.584 53.3301 966.463 L53.3301 962.297 Q55.9921 961.556 58.3069 961.186 Q60.6449 960.815 62.705 960.815 Q68.0291 960.815 71.1309 963.246 Q74.2327 965.653 74.2327 969.774 Q74.2327 972.644 72.5892 974.635 Q70.9457 976.602 67.9133 977.366 Z" fill="#000000" fill-rule="nonzero" fill-opacity="1"></path><path clip-path="url(#clip870)" d="M93.9086 964.519 Q90.2975 964.519 88.4688 968.084 Q86.6632 971.625 86.6632 978.755 Q86.6632 985.861 88.4688 989.426 Q90.2975 992.968 93.9086 992.968 Q97.5428 992.968 99.3483 989.426 Q101.177 985.861 101.177 978.755 Q101.177 971.625 99.3483 968.084 Q97.5428 964.519 93.9086 964.519 M93.9086 960.815 Q99.7187 960.815 102.774 965.422 Q105.853 970.005 105.853 978.755 Q105.853 987.482 102.774 992.088 Q99.7187 996.672 93.9086 996.672 Q88.0984 996.672 85.0197 992.088 Q81.9642 987.482 81.9642 978.755 Q81.9642 970.005 85.0197 965.422 Q88.0984 960.815 93.9086 960.815 Z" fill="#000000" fill-rule="nonzero" fill-opacity="1"></path><path clip-path="url(#clip870)" d="M66.5939 791.754 L54.7884 810.203 L66.5939 810.203 L66.5939 791.754 M65.367 787.68 L71.2466 787.68 L71.2466 810.203 L76.1772 810.203 L76.1772 814.092 L71.2466 814.092 L71.2466 822.24 L66.5939 822.24 L66.5939 814.092 L50.9921 814.092 L50.9921 809.578 L65.367 787.68 Z" fill="#000000" fill-rule="nonzero" fill-opacity="1"></path><path clip-path="url(#clip870)" d="M93.9086 790.759 Q90.2975 790.759 88.4688 794.323 Q86.6632 797.865 86.6632 804.995 Q86.6632 812.101 88.4688 815.666 Q90.2975 819.208 93.9086 819.208 Q97.5428 819.208 99.3483 815.666 Q101.177 812.101 101.177 804.995 Q101.177 797.865 99.3483 794.323 Q97.5428 790.759 93.9086 790.759 M93.9086 787.055 Q99.7187 787.055 102.774 791.661 Q105.853 796.245 105.853 804.995 Q105.853 813.722 102.774 818.328 Q99.7187 822.911 93.9086 822.911 Q88.0984 822.911 85.0197 818.328 Q81.9642 813.722 81.9642 804.995 Q81.9642 796.245 85.0197 791.661 Q88.0984 787.055 93.9086 787.055 Z" fill="#000000" fill-rule="nonzero" fill-opacity="1"></path><path clip-path="url(#clip870)" d="M53.793 613.92 L72.1494 613.92 L72.1494 617.855 L58.0754 617.855 L58.0754 626.327 Q59.0939 625.98 60.1124 625.818 Q61.131 625.633 62.1495 625.633 Q67.9365 625.633 71.3161 628.804 Q74.6957 631.975 74.6957 637.392 Q74.6957 642.97 71.2235 646.072 Q67.7513 649.151 61.4319 649.151 Q59.256 649.151 56.9875 648.781 Q54.7421 648.41 52.3347 647.67 L52.3347 642.97 Q54.418 644.105 56.6402 644.66 Q58.8625 645.216 61.3393 645.216 Q65.3439 645.216 67.6819 643.109 Q70.0198 641.003 70.0198 637.392 Q70.0198 633.781 67.6819 631.674 Q65.3439 629.568 61.3393 629.568 Q59.4643 629.568 57.5893 629.984 Q55.7375 630.401 53.793 631.281 L53.793 613.92 Z" fill="#000000" fill-rule="nonzero" fill-opacity="1"></path><path clip-path="url(#clip870)" d="M93.9086 616.998 Q90.2975 616.998 88.4688 620.563 Q86.6632 624.105 86.6632 631.234 Q86.6632 638.341 88.4688 641.906 Q90.2975 645.447 93.9086 645.447 Q97.5428 645.447 99.3483 641.906 Q101.177 638.341 101.177 631.234 Q101.177 624.105 99.3483 620.563 Q97.5428 616.998 93.9086 616.998 M93.9086 613.295 Q99.7187 613.295 102.774 617.901 Q105.853 622.484 105.853 631.234 Q105.853 639.961 102.774 644.568 Q99.7187 649.151 93.9086 649.151 Q88.0984 649.151 85.0197 644.568 Q81.9642 639.961 81.9642 631.234 Q81.9642 622.484 85.0197 617.901 Q88.0984 613.295 93.9086 613.295 Z" fill="#000000" fill-rule="nonzero" fill-opacity="1"></path><path clip-path="url(#clip870)" d="M64.3254 455.576 Q61.1773 455.576 59.3254 457.729 Q57.4967 459.882 57.4967 463.632 Q57.4967 467.358 59.3254 469.534 Q61.1773 471.687 64.3254 471.687 Q67.4735 471.687 69.3022 469.534 Q71.1541 467.358 71.1541 463.632 Q71.1541 459.882 69.3022 457.729 Q67.4735 455.576 64.3254 455.576 M73.6077 440.923 L73.6077 445.183 Q71.8485 444.349 70.0429 443.909 Q68.2606 443.47 66.5013 443.47 Q61.8717 443.47 59.418 446.595 Q56.9875 449.72 56.6402 456.039 Q58.006 454.025 60.0662 452.96 Q62.1263 451.872 64.6032 451.872 Q69.8115 451.872 72.8207 455.044 Q75.8531 458.192 75.8531 463.632 Q75.8531 468.956 72.705 472.173 Q69.5568 475.391 64.3254 475.391 Q58.33 475.391 55.1588 470.807 Q51.9875 466.201 51.9875 457.474 Q51.9875 449.28 55.8764 444.419 Q59.7652 439.534 66.3161 439.534 Q68.0754 439.534 69.8578 439.882 Q71.6633 440.229 73.6077 440.923 Z" fill="#000000" fill-rule="nonzero" fill-opacity="1"></path><path clip-path="url(#clip870)" d="M93.9086 443.238 Q90.2975 443.238 88.4688 446.803 Q86.6632 450.345 86.6632 457.474 Q86.6632 464.581 88.4688 468.145 Q90.2975 471.687 93.9086 471.687 Q97.5428 471.687 99.3483 468.145 Q101.177 464.581 101.177 457.474 Q101.177 450.345 99.3483 446.803 Q97.5428 443.238 93.9086 443.238 M93.9086 439.534 Q99.7187 439.534 102.774 444.141 Q105.853 448.724 105.853 457.474 Q105.853 466.201 102.774 470.807 Q99.7187 475.391 93.9086 475.391 Q88.0984 475.391 85.0197 470.807 Q81.9642 466.201 81.9642 457.474 Q81.9642 448.724 85.0197 444.141 Q88.0984 439.534 93.9086 439.534 Z" fill="#000000" fill-rule="nonzero" fill-opacity="1"></path><path clip-path="url(#clip870)" d="M52.5662 266.399 L74.7883 266.399 L74.7883 268.39 L62.2421 300.959 L57.3578 300.959 L69.1633 270.334 L52.5662 270.334 L52.5662 266.399 Z" fill="#000000" fill-rule="nonzero" fill-opacity="1"></path><path clip-path="url(#clip870)" d="M93.9086 269.478 Q90.2975 269.478 88.4688 273.043 Q86.6632 276.584 86.6632 283.714 Q86.6632 290.82 88.4688 294.385 Q90.2975 297.927 93.9086 297.927 Q97.5428 297.927 99.3483 294.385 Q101.177 290.82 101.177 283.714 Q101.177 276.584 99.3483 273.043 Q97.5428 269.478 93.9086 269.478 M93.9086 265.774 Q99.7187 265.774 102.774 270.381 Q105.853 274.964 105.853 283.714 Q105.853 292.441 102.774 297.047 Q99.7187 301.63 93.9086 301.63 Q88.0984 301.63 85.0197 297.047 Q81.9642 292.441 81.9642 283.714 Q81.9642 274.964 85.0197 270.381 Q88.0984 265.774 93.9086 265.774 Z" fill="#000000" fill-rule="nonzero" fill-opacity="1"></path><path clip-path="url(#clip870)" d="M1140.06 44.2197 Q1142.69 45.1109 1145.16 48.0275 Q1147.67 50.9442 1150.18 56.0483 L1158.49 72.576 L1149.7 72.576 L1141.96 57.061 Q1138.96 50.9847 1136.13 48.9997 Q1133.33 47.0148 1128.47 47.0148 L1119.56 47.0148 L1119.56 72.576 L1111.38 72.576 L1111.38 12.096 L1129.85 12.096 Q1140.22 12.096 1145.32 16.4305 Q1150.43 20.7649 1150.43 29.5149 Q1150.43 35.2267 1147.75 38.994 Q1145.12 42.7613 1140.06 44.2197 M1119.56 18.8205 L1119.56 40.2903 L1129.85 40.2903 Q1135.76 40.2903 1138.76 37.5762 Q1141.8 34.8216 1141.8 29.5149 Q1141.8 24.2082 1138.76 21.5346 Q1135.76 18.8205 1129.85 18.8205 L1119.56 18.8205 Z" fill="#000000" fill-rule="nonzero" fill-opacity="1"></path><path clip-path="url(#clip870)" d="M1182.55 32.4315 Q1176.56 32.4315 1173.07 37.1306 Q1169.59 41.7891 1169.59 49.9314 Q1169.59 58.0738 1173.03 62.7728 Q1176.51 67.4314 1182.55 67.4314 Q1188.51 67.4314 1191.99 62.7323 Q1195.47 58.0333 1195.47 49.9314 Q1195.47 41.8701 1191.99 37.1711 Q1188.51 32.4315 1182.55 32.4315 M1182.55 26.1121 Q1192.27 26.1121 1197.82 32.4315 Q1203.37 38.7509 1203.37 49.9314 Q1203.37 61.0714 1197.82 67.4314 Q1192.27 73.7508 1182.55 73.7508 Q1172.79 73.7508 1167.24 67.4314 Q1161.73 61.0714 1161.73 49.9314 Q1161.73 38.7509 1167.24 32.4315 Q1172.79 26.1121 1182.55 26.1121 Z" fill="#000000" fill-rule="nonzero" fill-opacity="1"></path><path clip-path="url(#clip870)" d="M1214.96 54.671 L1214.96 27.2059 L1222.41 27.2059 L1222.41 54.3874 Q1222.41 60.8284 1224.92 64.0691 Q1227.43 67.2693 1232.46 67.2693 Q1238.49 67.2693 1241.98 63.421 Q1245.5 59.5726 1245.5 52.9291 L1245.5 27.2059 L1252.96 27.2059 L1252.96 72.576 L1245.5 72.576 L1245.5 65.6084 Q1242.79 69.7404 1239.18 71.7658 Q1235.62 73.7508 1230.88 73.7508 Q1223.06 73.7508 1219.01 68.8897 Q1214.96 64.0286 1214.96 54.671 M1233.71 26.1121 L1233.71 26.1121 Z" fill="#000000" fill-rule="nonzero" fill-opacity="1"></path><path clip-path="url(#clip870)" d="M1275.68 14.324 L1275.68 27.2059 L1291.03 27.2059 L1291.03 32.9987 L1275.68 32.9987 L1275.68 57.6282 Q1275.68 63.1779 1277.18 64.7578 Q1278.72 66.3376 1283.38 66.3376 L1291.03 66.3376 L1291.03 72.576 L1283.38 72.576 Q1274.75 72.576 1271.47 69.3758 Q1268.19 66.1351 1268.19 57.6282 L1268.19 32.9987 L1262.72 32.9987 L1262.72 27.2059 L1268.19 27.2059 L1268.19 14.324 L1275.68 14.324 Z" fill="#000000" fill-rule="nonzero" fill-opacity="1"></path><path clip-path="url(#clip870)" d="M1339.64 48.0275 L1339.64 51.6733 L1305.37 51.6733 Q1305.86 59.3701 1309.99 63.421 Q1314.16 67.4314 1321.58 67.4314 Q1325.87 67.4314 1329.88 66.3781 Q1333.93 65.3249 1337.9 63.2184 L1337.9 70.267 Q1333.89 71.9684 1329.68 72.8596 Q1325.47 73.7508 1321.13 73.7508 Q1310.28 73.7508 1303.92 67.4314 Q1297.6 61.1119 1297.6 50.3365 Q1297.6 39.1965 1303.59 32.6746 Q1309.63 26.1121 1319.84 26.1121 Q1328.99 26.1121 1334.3 32.0264 Q1339.64 37.9003 1339.64 48.0275 M1332.19 45.84 Q1332.11 39.7232 1328.75 36.0774 Q1325.43 32.4315 1319.92 32.4315 Q1313.68 32.4315 1309.91 35.9558 Q1306.18 39.4801 1305.62 45.8805 L1332.19 45.84 Z" fill="#000000" fill-rule="nonzero" fill-opacity="1"></path><path clip-path="url(#clip870)" d="M1380.8 28.5427 L1380.8 35.5912 Q1377.64 33.9709 1374.24 33.1607 Q1370.84 32.3505 1367.19 32.3505 Q1361.64 32.3505 1358.85 34.0519 Q1356.09 35.7533 1356.09 39.156 Q1356.09 41.7486 1358.08 43.2475 Q1360.06 44.7058 1366.06 46.0426 L1368.61 46.6097 Q1376.55 48.3111 1379.87 51.4303 Q1383.23 54.509 1383.23 60.0587 Q1383.23 66.3781 1378.21 70.0644 Q1373.23 73.7508 1364.48 73.7508 Q1360.83 73.7508 1356.86 73.0216 Q1352.93 72.3329 1348.56 70.9151 L1348.56 63.2184 Q1352.69 65.3654 1356.7 66.4591 Q1360.71 67.5124 1364.64 67.5124 Q1369.91 67.5124 1372.74 65.73 Q1375.58 63.9071 1375.58 60.6258 Q1375.58 57.5877 1373.51 55.9673 Q1371.48 54.3469 1364.56 52.8481 L1361.97 52.2405 Q1355.04 50.7821 1351.96 47.7845 Q1348.88 44.7463 1348.88 39.4801 Q1348.88 33.0797 1353.42 29.5959 Q1357.95 26.1121 1366.3 26.1121 Q1370.43 26.1121 1374.08 26.7198 Q1377.72 27.3274 1380.8 28.5427 Z" fill="#000000" fill-rule="nonzero" fill-opacity="1"></path><circle clip-path="url(#clip872)" cx="1455.88" cy="648.576" r="14.4" fill="#009af9" fill-rule="evenodd" fill-opacity="1" stroke="#000000" stroke-opacity="1" stroke-width="3.2"></circle>
<circle clip-path="url(#clip872)" cx="1263.35" cy="1204.61" r="14.4" fill="#009af9" fill-rule="evenodd" fill-opacity="1" stroke="#000000" stroke-opacity="1" stroke-width="3.2"></circle>
<circle clip-path="url(#clip872)" cx="1905.12" cy="718.08" r="14.4" fill="#009af9" fill-rule="evenodd" fill-opacity="1" stroke="#000000" stroke-opacity="1" stroke-width="3.2"></circle>
<circle clip-path="url(#clip872)" cx="1905.12" cy="1152.48" r="14.4" fill="#009af9" fill-rule="evenodd" fill-opacity="1" stroke="#000000" stroke-opacity="1" stroke-width="3.2"></circle>
<circle clip-path="url(#clip872)" cx="621.577" cy="978.72" r="14.4" fill="#009af9" fill-rule="evenodd" fill-opacity="1" stroke="#000000" stroke-opacity="1" stroke-width="3.2"></circle>
<circle clip-path="url(#clip872)" cx="942.463" cy="978.72" r="14.4" fill="#009af9" fill-rule="evenodd" fill-opacity="1" stroke="#000000" stroke-opacity="1" stroke-width="3.2"></circle>
<circle clip-path="url(#clip872)" cx="782.02" cy="631.2" r="14.4" fill="#009af9" fill-rule="evenodd" fill-opacity="1" stroke="#000000" stroke-opacity="1" stroke-width="3.2"></circle>
<circle clip-path="url(#clip872)" cx="461.134" cy="752.832" r="14.4" fill="#009af9" fill-rule="evenodd" fill-opacity="1" stroke="#000000" stroke-opacity="1" stroke-width="3.2"></circle>
<circle clip-path="url(#clip872)" cx="1905.12" cy="457.439" r="14.4" fill="#009af9" fill-rule="evenodd" fill-opacity="1" stroke="#000000" stroke-opacity="1" stroke-width="3.2"></circle>
<circle clip-path="url(#clip872)" cx="1102.91" cy="457.439" r="14.4" fill="#009af9" fill-rule="evenodd" fill-opacity="1" stroke="#000000" stroke-opacity="1" stroke-width="3.2"></circle>
<circle clip-path="url(#clip872)" cx="782.02" cy="370.559" r="14.4" fill="#009af9" fill-rule="evenodd" fill-opacity="1" stroke="#000000" stroke-opacity="1" stroke-width="3.2"></circle>
<circle clip-path="url(#clip872)" cx="1744.68" cy="891.84" r="14.4" fill="#009af9" fill-rule="evenodd" fill-opacity="1" stroke="#000000" stroke-opacity="1" stroke-width="3.2"></circle>
<circle clip-path="url(#clip872)" cx="1102.91" cy="1065.6" r="14.4" fill="#009af9" fill-rule="evenodd" fill-opacity="1" stroke="#000000" stroke-opacity="1" stroke-width="3.2"></circle>
<circle clip-path="url(#clip872)" cx="621.577" cy="1326.24" r="14.4" fill="#009af9" fill-rule="evenodd" fill-opacity="1" stroke="#000000" stroke-opacity="1" stroke-width="3.2"></circle>
<circle clip-path="url(#clip872)" cx="1102.91" cy="1413.12" r="14.4" fill="#009af9" fill-rule="evenodd" fill-opacity="1" stroke="#000000" stroke-opacity="1" stroke-width="3.2"></circle>
<circle clip-path="url(#clip872)" cx="461.134" cy="1152.48" r="14.4" fill="#009af9" fill-rule="evenodd" fill-opacity="1" stroke="#000000" stroke-opacity="1" stroke-width="3.2"></circle>
<circle clip-path="url(#clip872)" cx="300.691" cy="978.72" r="14.4" fill="#009af9" fill-rule="evenodd" fill-opacity="1" stroke="#000000" stroke-opacity="1" stroke-width="3.2"></circle>
<circle clip-path="url(#clip872)" cx="782.02" cy="804.96" r="14.4" fill="#009af9" fill-rule="evenodd" fill-opacity="1" stroke="#000000" stroke-opacity="1" stroke-width="3.2"></circle>
<circle clip-path="url(#clip872)" cx="621.577" cy="457.439" r="14.4" fill="#009af9" fill-rule="evenodd" fill-opacity="1" stroke="#000000" stroke-opacity="1" stroke-width="3.2"></circle>
<circle clip-path="url(#clip872)" cx="1584.23" cy="370.559" r="14.4" fill="#009af9" fill-rule="evenodd" fill-opacity="1" stroke="#000000" stroke-opacity="1" stroke-width="3.2"></circle>
<circle clip-path="url(#clip872)" cx="1584.23" cy="1152.48" r="14.4" fill="#009af9" fill-rule="evenodd" fill-opacity="1" stroke="#000000" stroke-opacity="1" stroke-width="3.2"></circle>
<circle clip-path="url(#clip872)" cx="1584.23" cy="1326.24" r="14.4" fill="#009af9" fill-rule="evenodd" fill-opacity="1" stroke="#000000" stroke-opacity="1" stroke-width="3.2"></circle>
<circle clip-path="url(#clip872)" cx="1905.12" cy="1413.12" r="14.4" fill="#009af9" fill-rule="evenodd" fill-opacity="1" stroke="#000000" stroke-opacity="1" stroke-width="3.2"></circle>
<circle clip-path="url(#clip872)" cx="2226.01" cy="891.84" r="14.4" fill="#009af9" fill-rule="evenodd" fill-opacity="1" stroke="#000000" stroke-opacity="1" stroke-width="3.2"></circle>
<circle clip-path="url(#clip872)" cx="2226.01" cy="1152.48" r="14.4" fill="#009af9" fill-rule="evenodd" fill-opacity="1" stroke="#000000" stroke-opacity="1" stroke-width="3.2"></circle>
<circle clip-path="url(#clip872)" cx="1584.23" cy="978.72" r="14.4" fill="#009af9" fill-rule="evenodd" fill-opacity="1" stroke="#000000" stroke-opacity="1" stroke-width="3.2"></circle>
<circle clip-path="url(#clip872)" cx="1263.35" cy="804.96" r="14.4" fill="#009af9" fill-rule="evenodd" fill-opacity="1" stroke="#000000" stroke-opacity="1" stroke-width="3.2"></circle>
<circle clip-path="url(#clip872)" cx="1455.88" cy="857.088" r="14.4" fill="#009af9" fill-rule="evenodd" fill-opacity="1" stroke="#000000" stroke-opacity="1" stroke-width="3.2"></circle>
<circle clip-path="url(#clip872)" cx="2193.92" cy="770.208" r="14.4" fill="#009af9" fill-rule="evenodd" fill-opacity="1" stroke="#000000" stroke-opacity="1" stroke-width="3.2"></circle>
<circle clip-path="url(#clip872)" cx="1423.79" cy="457.439" r="14.4" fill="#009af9" fill-rule="evenodd" fill-opacity="1" stroke="#000000" stroke-opacity="1" stroke-width="3.2"></circle>
<circle clip-path="url(#clip872)" cx="1134.99" cy="596.448" r="14.4" fill="#009af9" fill-rule="evenodd" fill-opacity="1" stroke="#000000" stroke-opacity="1" stroke-width="3.2"></circle>
<circle clip-path="url(#clip872)" cx="1263.35" cy="301.055" r="14.4" fill="#009af9" fill-rule="evenodd" fill-opacity="1" stroke="#000000" stroke-opacity="1" stroke-width="3.2"></circle>
<circle clip-path="url(#clip872)" cx="1840.94" cy="596.448" r="14.4" fill="#009af9" fill-rule="evenodd" fill-opacity="1" stroke="#000000" stroke-opacity="1" stroke-width="3.2"></circle>
<circle clip-path="url(#clip872)" cx="2226.01" cy="544.32" r="14.4" fill="#009af9" fill-rule="evenodd" fill-opacity="1" stroke="#000000" stroke-opacity="1" stroke-width="3.2"></circle>
<circle clip-path="url(#clip872)" cx="2161.83" cy="370.559" r="14.4" fill="#009af9" fill-rule="evenodd" fill-opacity="1" stroke="#000000" stroke-opacity="1" stroke-width="3.2"></circle>
<circle clip-path="url(#clip872)" cx="204.426" cy="457.439" r="14.4" fill="#009af9" fill-rule="evenodd" fill-opacity="1" stroke="#000000" stroke-opacity="1" stroke-width="3.2"></circle>
<circle clip-path="url(#clip872)" cx="782.02" cy="1152.48" r="14.4" fill="#009af9" fill-rule="evenodd" fill-opacity="1" stroke="#000000" stroke-opacity="1" stroke-width="3.2"></circle>
<circle clip-path="url(#clip872)" cx="300.691" cy="1413.12" r="14.4" fill="#009af9" fill-rule="evenodd" fill-opacity="1" stroke="#000000" stroke-opacity="1" stroke-width="3.2"></circle>
<circle clip-path="url(#clip872)" cx="2065.56" cy="1291.49" r="14.4" fill="#009af9" fill-rule="evenodd" fill-opacity="1" stroke="#000000" stroke-opacity="1" stroke-width="3.2"></circle>
<circle clip-path="url(#clip872)" cx="1423.79" cy="1065.6" r="14.4" fill="#009af9" fill-rule="evenodd" fill-opacity="1" stroke="#000000" stroke-opacity="1" stroke-width="3.2"></circle>
<circle clip-path="url(#clip872)" cx="1487.97" cy="1378.37" r="14.4" fill="#009af9" fill-rule="evenodd" fill-opacity="1" stroke="#000000" stroke-opacity="1" stroke-width="3.2"></circle>
<circle clip-path="url(#clip872)" cx="910.374" cy="1291.49" r="14.4" fill="#009af9" fill-rule="evenodd" fill-opacity="1" stroke="#000000" stroke-opacity="1" stroke-width="3.2"></circle>
<circle clip-path="url(#clip872)" cx="878.286" cy="1447.87" r="14.4" fill="#009af9" fill-rule="evenodd" fill-opacity="1" stroke="#000000" stroke-opacity="1" stroke-width="3.2"></circle>
<circle clip-path="url(#clip872)" cx="493.223" cy="1256.74" r="14.4" fill="#009af9" fill-rule="evenodd" fill-opacity="1" stroke="#000000" stroke-opacity="1" stroke-width="3.2"></circle>
<circle clip-path="url(#clip872)" cx="332.78" cy="839.712" r="14.4" fill="#009af9" fill-rule="evenodd" fill-opacity="1" stroke="#000000" stroke-opacity="1" stroke-width="3.2"></circle>
<circle clip-path="url(#clip872)" cx="204.426" cy="665.952" r="14.4" fill="#009af9" fill-rule="evenodd" fill-opacity="1" stroke="#000000" stroke-opacity="1" stroke-width="3.2"></circle>
<circle clip-path="url(#clip872)" cx="396.957" cy="526.944" r="14.4" fill="#009af9" fill-rule="evenodd" fill-opacity="1" stroke="#000000" stroke-opacity="1" stroke-width="3.2"></circle>
<circle clip-path="url(#clip872)" cx="557.4" cy="596.448" r="14.4" fill="#009af9" fill-rule="evenodd" fill-opacity="1" stroke="#000000" stroke-opacity="1" stroke-width="3.2"></circle>
<circle clip-path="url(#clip872)" cx="332.78" cy="318.431" r="14.4" fill="#009af9" fill-rule="evenodd" fill-opacity="1" stroke="#000000" stroke-opacity="1" stroke-width="3.2"></circle>
<circle clip-path="url(#clip872)" cx="1648.41" cy="683.328" r="14.4" fill="#009af9" fill-rule="evenodd" fill-opacity="1" stroke="#000000" stroke-opacity="1" stroke-width="3.2"></circle>
<circle clip-path="url(#clip872)" cx="1712.59" cy="492.191" r="14.4" fill="#009af9" fill-rule="evenodd" fill-opacity="1" stroke="#000000" stroke-opacity="1" stroke-width="3.2"></circle>
<circle clip-path="url(#clip872)" cx="1006.64" cy="752.832" r="14.4" fill="#009af9" fill-rule="evenodd" fill-opacity="1" stroke="#000000" stroke-opacity="1" stroke-width="3.2"></circle>
<circle clip-path="url(#clip872)" cx="1327.53" cy="961.344" r="14.4" fill="#009af9" fill-rule="evenodd" fill-opacity="1" stroke="#000000" stroke-opacity="1" stroke-width="3.2"></circle>
<circle clip-path="url(#clip872)" cx="1969.3" cy="996.096" r="14.4" fill="#009af9" fill-rule="evenodd" fill-opacity="1" stroke="#000000" stroke-opacity="1" stroke-width="3.2"></circle>
<circle clip-path="url(#clip872)" cx="2161.83" cy="1100.35" r="14.4" fill="#009af9" fill-rule="evenodd" fill-opacity="1" stroke="#000000" stroke-opacity="1" stroke-width="3.2"></circle>
<circle clip-path="url(#clip872)" cx="1840.94" cy="1291.49" r="14.4" fill="#009af9" fill-rule="evenodd" fill-opacity="1" stroke="#000000" stroke-opacity="1" stroke-width="3.2"></circle>
<circle clip-path="url(#clip872)" cx="1167.08" cy="1291.49" r="14.4" fill="#009af9" fill-rule="evenodd" fill-opacity="1" stroke="#000000" stroke-opacity="1" stroke-width="3.2"></circle>
<circle clip-path="url(#clip872)" cx="1295.44" cy="1048.22" r="14.4" fill="#009af9" fill-rule="evenodd" fill-opacity="1" stroke="#000000" stroke-opacity="1" stroke-width="3.2"></circle>
<circle clip-path="url(#clip872)" cx="814.109" cy="1082.98" r="14.4" fill="#009af9" fill-rule="evenodd" fill-opacity="1" stroke="#000000" stroke-opacity="1" stroke-width="3.2"></circle>
<circle clip-path="url(#clip872)" cx="685.754" cy="909.216" r="14.4" fill="#009af9" fill-rule="evenodd" fill-opacity="1" stroke="#000000" stroke-opacity="1" stroke-width="3.2"></circle>
<circle clip-path="url(#clip872)" cx="525.311" cy="1082.98" r="14.4" fill="#009af9" fill-rule="evenodd" fill-opacity="1" stroke="#000000" stroke-opacity="1" stroke-width="3.2"></circle>
<circle clip-path="url(#clip872)" cx="910.374" cy="492.191" r="14.4" fill="#009af9" fill-rule="evenodd" fill-opacity="1" stroke="#000000" stroke-opacity="1" stroke-width="3.2"></circle>
<circle clip-path="url(#clip872)" cx="1006.64" cy="301.055" r="14.4" fill="#009af9" fill-rule="evenodd" fill-opacity="1" stroke="#000000" stroke-opacity="1" stroke-width="3.2"></circle>
<circle clip-path="url(#clip872)" cx="621.577" cy="162.047" r="14.4" fill="#009af9" fill-rule="evenodd" fill-opacity="1" stroke="#000000" stroke-opacity="1" stroke-width="3.2"></circle>
<circle clip-path="url(#clip872)" cx="2129.74" cy="162.047" r="14.4" fill="#009af9" fill-rule="evenodd" fill-opacity="1" stroke="#000000" stroke-opacity="1" stroke-width="3.2"></circle>
<circle clip-path="url(#clip872)" cx="1712.59" cy="231.551" r="14.4" fill="#009af9" fill-rule="evenodd" fill-opacity="1" stroke="#000000" stroke-opacity="1" stroke-width="3.2"></circle>
<circle clip-path="url(#clip872)" cx="2290.18" cy="1413.12" r="14.4" fill="#009af9" fill-rule="evenodd" fill-opacity="1" stroke="#000000" stroke-opacity="1" stroke-width="3.2"></circle>
<circle clip-path="url(#clip872)" cx="1937.21" cy="822.336" r="14.4" fill="#009af9" fill-rule="evenodd" fill-opacity="1" stroke="#000000" stroke-opacity="1" stroke-width="3.2"></circle>
<circle clip-path="url(#clip872)" cx="1327.53" cy="683.328" r="14.4" fill="#009af9" fill-rule="evenodd" fill-opacity="1" stroke="#000000" stroke-opacity="1" stroke-width="3.2"></circle>
<circle clip-path="url(#clip872)" cx="1327.53" cy="526.944" r="14.4" fill="#009af9" fill-rule="evenodd" fill-opacity="1" stroke="#000000" stroke-opacity="1" stroke-width="3.2"></circle>
<circle clip-path="url(#clip872)" cx="1969.3" cy="318.431" r="14.4" fill="#009af9" fill-rule="evenodd" fill-opacity="1" stroke="#000000" stroke-opacity="1" stroke-width="3.2"></circle>
<circle clip-path="url(#clip872)" cx="1648.41" cy="1221.98" r="14.4" fill="#009af9" fill-rule="evenodd" fill-opacity="1" stroke="#000000" stroke-opacity="1" stroke-width="3.2"></circle>
<circle clip-path="url(#clip872)" cx="1552.15" cy="1204.61" r="14.4" fill="#009af9" fill-rule="evenodd" fill-opacity="1" stroke="#000000" stroke-opacity="1" stroke-width="3.2"></circle>
<circle clip-path="url(#clip872)" cx="1616.32" cy="1274.11" r="14.4" fill="#009af9" fill-rule="evenodd" fill-opacity="1" stroke="#000000" stroke-opacity="1" stroke-width="3.2"></circle>
<circle clip-path="url(#clip872)" cx="1712.59" cy="1308.86" r="14.4" fill="#009af9" fill-rule="evenodd" fill-opacity="1" stroke="#000000" stroke-opacity="1" stroke-width="3.2"></circle>
<circle clip-path="url(#clip872)" cx="1712.59" cy="770.208" r="14.4" fill="#009af9" fill-rule="evenodd" fill-opacity="1" stroke="#000000" stroke-opacity="1" stroke-width="3.2"></circle>
<circle clip-path="url(#clip872)" cx="1840.94" cy="752.832" r="14.4" fill="#009af9" fill-rule="evenodd" fill-opacity="1" stroke="#000000" stroke-opacity="1" stroke-width="3.2"></circle>
<circle clip-path="url(#clip872)" cx="2097.65" cy="596.448" r="14.4" fill="#009af9" fill-rule="evenodd" fill-opacity="1" stroke="#000000" stroke-opacity="1" stroke-width="3.2"></circle>
<circle clip-path="url(#clip872)" cx="1969.3" cy="665.952" r="14.4" fill="#009af9" fill-rule="evenodd" fill-opacity="1" stroke="#000000" stroke-opacity="1" stroke-width="3.2"></circle>
<circle clip-path="url(#clip872)" cx="1937.21" cy="857.088" r="14.4" fill="#009af9" fill-rule="evenodd" fill-opacity="1" stroke="#000000" stroke-opacity="1" stroke-width="3.2"></circle>
<circle clip-path="url(#clip872)" cx="1905.12" cy="561.696" r="14.4" fill="#009af9" fill-rule="evenodd" fill-opacity="1" stroke="#000000" stroke-opacity="1" stroke-width="3.2"></circle>
<circle clip-path="url(#clip872)" cx="621.577" cy="683.328" r="14.4" fill="#009af9" fill-rule="evenodd" fill-opacity="1" stroke="#000000" stroke-opacity="1" stroke-width="3.2"></circle>
<circle clip-path="url(#clip872)" cx="589.489" cy="857.088" r="14.4" fill="#009af9" fill-rule="evenodd" fill-opacity="1" stroke="#000000" stroke-opacity="1" stroke-width="3.2"></circle>
<circle clip-path="url(#clip872)" cx="493.223" cy="961.344" r="14.4" fill="#009af9" fill-rule="evenodd" fill-opacity="1" stroke="#000000" stroke-opacity="1" stroke-width="3.2"></circle>
<circle clip-path="url(#clip872)" cx="653.666" cy="1117.73" r="14.4" fill="#009af9" fill-rule="evenodd" fill-opacity="1" stroke="#000000" stroke-opacity="1" stroke-width="3.2"></circle>
<circle clip-path="url(#clip872)" cx="268.603" cy="1187.23" r="14.4" fill="#009af9" fill-rule="evenodd" fill-opacity="1" stroke="#000000" stroke-opacity="1" stroke-width="3.2"></circle>
<circle clip-path="url(#clip872)" cx="1038.73" cy="1187.23" r="14.4" fill="#009af9" fill-rule="evenodd" fill-opacity="1" stroke="#000000" stroke-opacity="1" stroke-width="3.2"></circle>
<circle clip-path="url(#clip872)" cx="974.552" cy="596.448" r="14.4" fill="#009af9" fill-rule="evenodd" fill-opacity="1" stroke="#000000" stroke-opacity="1" stroke-width="3.2"></circle>
<circle clip-path="url(#clip872)" cx="974.552" cy="891.84" r="14.4" fill="#009af9" fill-rule="evenodd" fill-opacity="1" stroke="#000000" stroke-opacity="1" stroke-width="3.2"></circle>
<circle clip-path="url(#clip872)" cx="1134.99" cy="335.807" r="14.4" fill="#009af9" fill-rule="evenodd" fill-opacity="1" stroke="#000000" stroke-opacity="1" stroke-width="3.2"></circle>
<circle clip-path="url(#clip872)" cx="621.577" cy="1169.86" r="14.4" fill="#009af9" fill-rule="evenodd" fill-opacity="1" stroke="#000000" stroke-opacity="1" stroke-width="3.2"></circle>
<circle clip-path="url(#clip872)" cx="846.197" cy="1117.73" r="14.4" fill="#009af9" fill-rule="evenodd" fill-opacity="1" stroke="#000000" stroke-opacity="1" stroke-width="3.2"></circle>
<circle clip-path="url(#clip872)" cx="717.843" cy="1082.98" r="14.4" fill="#009af9" fill-rule="evenodd" fill-opacity="1" stroke="#000000" stroke-opacity="1" stroke-width="3.2"></circle>
<circle clip-path="url(#clip872)" cx="974.552" cy="1030.85" r="14.4" fill="#009af9" fill-rule="evenodd" fill-opacity="1" stroke="#000000" stroke-opacity="1" stroke-width="3.2"></circle>
<circle clip-path="url(#clip872)" cx="942.463" cy="1082.98" r="14.4" fill="#009af9" fill-rule="evenodd" fill-opacity="1" stroke="#000000" stroke-opacity="1" stroke-width="3.2"></circle>
<circle clip-path="url(#clip872)" cx="846.197" cy="1030.85" r="14.4" fill="#009af9" fill-rule="evenodd" fill-opacity="1" stroke="#000000" stroke-opacity="1" stroke-width="3.2"></circle>
<circle clip-path="url(#clip872)" cx="942.463" cy="1135.1" r="14.4" fill="#009af9" fill-rule="evenodd" fill-opacity="1" stroke="#000000" stroke-opacity="1" stroke-width="3.2"></circle>
<circle clip-path="url(#clip872)" cx="749.931" cy="1135.1" r="14.4" fill="#009af9" fill-rule="evenodd" fill-opacity="1" stroke="#000000" stroke-opacity="1" stroke-width="3.2"></circle>
<circle clip-path="url(#clip872)" cx="782.02" cy="1048.22" r="14.4" fill="#009af9" fill-rule="evenodd" fill-opacity="1" stroke="#000000" stroke-opacity="1" stroke-width="3.2"></circle>
<circle clip-path="url(#clip872)" cx="717.843" cy="1187.23" r="14.4" fill="#009af9" fill-rule="evenodd" fill-opacity="1" stroke="#000000" stroke-opacity="1" stroke-width="3.2"></circle>
<polyline clip-path="url(#clip872)" style="stroke:#e26f46; stroke-linecap:round; stroke-linejoin:round; stroke-width:4; stroke-opacity:1; fill:none" points="1263.35,891.84 942.463,1082.98 717.843,1187.23 300.691,1413.12 493.223,1256.74 749.931,1135.1 782.02,1048.22 846.197,1030.85 942.463,978.72 1263.35,891.84 "></polyline>
<polyline clip-path="url(#clip872)" style="stroke:#3da44d; stroke-linecap:round; stroke-linejoin:round; stroke-width:4; stroke-opacity:1; fill:none" points="1263.35,891.84 1167.08,1291.49 1102.91,1413.12 878.286,1447.87 1263.35,891.84 "></polyline>
<polyline clip-path="url(#clip872)" style="stroke:#c271d2; stroke-linecap:round; stroke-linejoin:round; stroke-width:4; stroke-opacity:1; fill:none" points="1263.35,891.84 910.374,1291.49 621.577,1326.24 268.603,1187.23 461.134,1152.48 621.577,1169.86 717.843,1082.98 1263.35,891.84 "></polyline>
<polyline clip-path="url(#clip872)" style="stroke:#ac8d18; stroke-linecap:round; stroke-linejoin:round; stroke-width:4; stroke-opacity:1; fill:none" points="1263.35,891.84 1327.53,961.344 1263.35,891.84 "></polyline>
<polyline clip-path="url(#clip872)" style="stroke:#00a9ad; stroke-linecap:round; stroke-linejoin:round; stroke-width:4; stroke-opacity:1; fill:none" points="1263.35,891.84 974.552,1030.85 814.109,1082.98 653.666,1117.73 782.02,1152.48 846.197,1117.73 942.463,1135.1 1102.91,1065.6 1263.35,891.84 "></polyline>
<polyline clip-path="url(#clip872)" style="stroke:#ed5d92; stroke-linecap:round; stroke-linejoin:round; stroke-width:4; stroke-opacity:1; fill:none" points="1263.35,891.84 1712.59,770.208 2161.83,370.559 2226.01,544.32 2097.65,596.448 2226.01,891.84 1937.21,857.088 1263.35,891.84 "></polyline>
<polyline clip-path="url(#clip872)" style="stroke:#c68125; stroke-linecap:round; stroke-linejoin:round; stroke-width:4; stroke-opacity:1; fill:none" points="1263.35,891.84 1905.12,1152.48 2226.01,1152.48 2161.83,1100.35 1969.3,996.096 1263.35,891.84 "></polyline>
<polyline clip-path="url(#clip872)" style="stroke:#00a98d; stroke-linecap:round; stroke-linejoin:round; stroke-width:4; stroke-opacity:1; fill:none" points="1263.35,891.84 1263.35,804.96 1327.53,683.328 1327.53,526.944 1423.79,457.439 1455.88,648.576 1263.35,891.84 "></polyline>
<polyline clip-path="url(#clip872)" style="stroke:#8e971d; stroke-linecap:round; stroke-linejoin:round; stroke-width:4; stroke-opacity:1; fill:none" points="1263.35,891.84 1263.35,1204.61 1038.73,1187.23 1263.35,891.84 "></polyline>
<polyline clip-path="url(#clip872)" style="stroke:#00a8cb; stroke-linecap:round; stroke-linejoin:round; stroke-width:4; stroke-opacity:1; fill:none" points="1263.35,891.84 1263.35,891.84 "></polyline>
<polyline clip-path="url(#clip872)" style="stroke:#9b7fe8; stroke-linecap:round; stroke-linejoin:round; stroke-width:4; stroke-opacity:1; fill:none" points="1263.35,891.84 2290.18,1413.12 1905.12,1413.12 2065.56,1291.49 1263.35,891.84 "></polyline>
<polyline clip-path="url(#clip872)" style="stroke:#608cf6; stroke-linecap:round; stroke-linejoin:round; stroke-width:4; stroke-opacity:1; fill:none" points="1263.35,891.84 1006.64,752.832 621.577,683.328 396.957,526.944 621.577,457.439 782.02,370.559 910.374,492.191 974.552,596.448 1263.35,891.84 "></polyline>
<polyline clip-path="url(#clip872)" style="stroke:#f05f73; stroke-linecap:round; stroke-linejoin:round; stroke-width:4; stroke-opacity:1; fill:none" points="1263.35,891.84 1744.68,891.84 2193.92,770.208 1969.3,318.431 2129.74,162.047 1840.94,596.448 1263.35,891.84 "></polyline>
<polyline clip-path="url(#clip872)" style="stroke:#dd64b5; stroke-linecap:round; stroke-linejoin:round; stroke-width:4; stroke-opacity:1; fill:none" points="1263.35,891.84 1584.23,1152.48 1648.41,1221.98 1552.15,1204.61 1263.35,891.84 "></polyline>
<polyline clip-path="url(#clip872)" style="stroke:#6b9e32; stroke-linecap:round; stroke-linejoin:round; stroke-width:4; stroke-opacity:1; fill:none" points="1263.35,891.84 782.02,804.96 589.489,857.088 621.577,978.72 525.311,1082.98 493.223,961.344 685.754,909.216 974.552,891.84 1263.35,891.84 "></polyline>
<polyline clip-path="url(#clip872)" style="stroke:#009af9; stroke-linecap:round; stroke-linejoin:round; stroke-width:4; stroke-opacity:1; fill:none" points="1263.35,891.84 1134.99,596.448 1134.99,335.807 621.577,162.047 332.78,318.431 204.426,457.439 557.4,596.448 1263.35,891.84 "></polyline>
<polyline clip-path="url(#clip872)" style="stroke:#e26f46; stroke-linecap:round; stroke-linejoin:round; stroke-width:4; stroke-opacity:1; fill:none" points="1263.35,891.84 1423.79,1065.6 1295.44,1048.22 1584.23,978.72 1263.35,891.84 "></polyline>
<polyline clip-path="url(#clip872)" style="stroke:#3da44d; stroke-linecap:round; stroke-linejoin:round; stroke-width:4; stroke-opacity:1; fill:none" points="1263.35,891.84 461.134,752.832 204.426,665.952 332.78,839.712 300.691,978.72 1263.35,891.84 "></polyline>
<polyline clip-path="url(#clip872)" style="stroke:#c271d2; stroke-linecap:round; stroke-linejoin:round; stroke-width:4; stroke-opacity:1; fill:none" points="1263.35,891.84 1263.35,891.84 "></polyline>
<polyline clip-path="url(#clip872)" style="stroke:#ac8d18; stroke-linecap:round; stroke-linejoin:round; stroke-width:4; stroke-opacity:1; fill:none" points="1263.35,891.84 1840.94,752.832 1969.3,665.952 1905.12,561.696 1905.12,457.439 1712.59,492.191 1712.59,231.551 1584.23,370.559 1648.41,683.328 1263.35,891.84 "></polyline>
<polyline clip-path="url(#clip872)" style="stroke:#00a9ad; stroke-linecap:round; stroke-linejoin:round; stroke-width:4; stroke-opacity:1; fill:none" points="1263.35,891.84 1263.35,891.84 "></polyline>
<polyline clip-path="url(#clip872)" style="stroke:#ed5d92; stroke-linecap:round; stroke-linejoin:round; stroke-width:4; stroke-opacity:1; fill:none" points="1263.35,891.84 782.02,631.2 1006.64,301.055 1263.35,301.055 1102.91,457.439 1263.35,891.84 "></polyline>
<polyline clip-path="url(#clip872)" style="stroke:#c68125; stroke-linecap:round; stroke-linejoin:round; stroke-width:4; stroke-opacity:1; fill:none" points="1263.35,891.84 1712.59,1308.86 1840.94,1291.49 1487.97,1378.37 1584.23,1326.24 1616.32,1274.11 1263.35,891.84 "></polyline>
<polyline clip-path="url(#clip872)" style="stroke:#00a98d; stroke-linecap:round; stroke-linejoin:round; stroke-width:4; stroke-opacity:1; fill:none" points="1263.35,891.84 1455.88,857.088 1905.12,718.08 1937.21,822.336 1263.35,891.84 "></polyline>
<polyline clip-path="url(#clip872)" style="stroke:#8e971d; stroke-linecap:round; stroke-linejoin:round; stroke-width:4; stroke-opacity:1; fill:none" points="1263.35,891.84 1263.35,891.84 "></polyline>
</svg>